
<global>
amp_veltrack=0
ampeg_attack=0.002
ampeg_release=0.35
</global>

<group>
group_label=PP
lpc_hicc1=42
lpc_locc1=0

<region>
end=324039
hikey=g#4
hivel=127
lokey=g4
loop_end=243029
loop_mode=loop_continuous
loop_start=83378
loop_xfade=47895
lovel=1
lpc=gU5yQS6aFMIOtBNCjOy6wdX5hEEFWoLB0qZpQRbSFcE0jqpAUvMPwGroiD/gOYjA5ACSQKF3zL593gzASRUPQId68b+NSFJARfZewJPZIEAZ+x7ATjwvQO8fHcCekoo/
lpc_rms=-44.48
pitch_keycenter=g#4
sample=SoloCello_trill_half_PP_G#4.opus
</region>

<region>
end=327932
hikey=g#3
hivel=127
lokey=g3
loop_end=245949
loop_mode=loop_continuous
loop_start=84380
loop_xfade=48470
lovel=1
lpc=8UIqQkeA1MK4NLhCETMRwuLZnUHe2qDBkXpjQQWPO8FlALhA/2EPPx02h0BoNW/BBDGHQXdyiMBcDJDAyLwgPyD6DkAu1wtAd7C5v1hDLcA3C0q/RElpQAqFH8BC5oo/
lpc_rms=-40.67
pitch_keycenter=g#3
sample=SoloCello_trill_half_PP_G#3.opus
</region>

<region>
end=300205
hikey=g#2
hivel=127
lokey=g2
loop_end=225153
loop_mode=loop_continuous
loop_start=77246
loop_xfade=44372
lovel=1
lpc=pDhqQhmoFsO9ugNDn0tEwugN10GgruDBipCGQYpQNsHkkGhAY9NuPxyy6UBPm4TBh5JNQVlpyUACuELBlFoHv9FWZr7n7UVBLawjwemrvj/3YcK/mFZ5QLC2h8B7RAtA
lpc_rms=-37.81
offset=6048
pitch_keycenter=g#2
sample=SoloCello_trill_half_PP_G#2.opus
</region>

<region>
end=310865
hikey=A#6
hivel=127
lokey=f5
loop_end=233148
loop_mode=loop_continuous
loop_start=79989
loop_xfade=45947
lovel=1
lpc=SJZnQV3HCMInCRFCt3LewTCnr0HCOZDBHDhjQa7kNMGWWRpBLG4BwYPs8kBB5MzAG1mBQAqRvb87e7i/WdtKQMELeMBNj5NAlYsswB6OVz8bc+E+xAn9v+vhIkAMVcy/
lpc_rms=-43.01
pitch_keycenter=F#5
sample=SoloCello_trill_half_PP_F#5.opus
</region>

<region>
end=304503
hikey=f#4
hivel=127
lokey=f4
loop_end=228377
loop_mode=loop_continuous
loop_start=78352
loop_xfade=45007
lovel=1
lpc=w4WSQfFkQMJGIU1CUvcAwrmrokEr7o3BxU0+QT9SN8A4DK+/f0e6Pu6sDEAwxJjASYeKQBCEjb6aiQ3AOMbnP2IEqr/4315Ad02QwPI6HUDmeaG/ooT6P0WaIsB1Kqo/
lpc_rms=-44.29
pitch_keycenter=f#4
sample=SoloCello_trill_half_PP_F#4.opus
</region>

<region>
end=297314
hikey=f#3
hivel=127
lokey=f3
loop_end=222985
loop_mode=loop_continuous
loop_start=76502
loop_xfade=43944
lovel=1
lpc=SGE3QlVL78I6KOBCSAg/wsCDi0EBVTvBNOHjQNkxMMFn6T1BMMr7wCSGVkGhQarB3Fx4Qbfz2j/MF0TB4mrsQMd3QkDoLpXAmX83QExBTMCm4F2/E/G5QO3d5sCTU2VA
lpc_rms=-40.69
offset=6538
pitch_keycenter=f#3
sample=SoloCello_trill_half_PP_F#3.opus
</region>

<region>
end=288419
hikey=f#2
hivel=127
lokey=f2
loop_end=216314
loop_mode=loop_continuous
loop_start=74213
loop_xfade=42630
lovel=1
lpc=EQeZQkX0MsMlffxCbp/Gwa1buUG1GgDCdUMOQbPI6b8YZFg/3yanvjc3DkEA8GLBJba+QPOwVUF/hkzB/NkfwKYCoD+QA75AZoXcvrIFxMDn+I1AtSVbQBT1QsEHjO9A
lpc_rms=-35.70
pitch_keycenter=f#2
sample=SoloCello_trill_half_PP_F#2.opus
</region>

<region>
end=343498
hikey=e5
hivel=127
lokey=d#5
loop_end=257623
loop_mode=loop_continuous
loop_start=88386
loop_xfade=50771
lovel=1
lpc=KdKBQTBvH8KyhCdCP6HxwWaYs0F4sIjBGkgvQRQIzsAE0JFApRtCwLujKkBNG2zAjHcSQKiMI0BGXrHApZVaQPf4J79ZNe8/LsoYv/xEGcCR6DpAEHSMwIfno0B6PxDA
lpc_rms=-43.17
pitch_keycenter=e5
sample=SoloCello_trill_half_PP_E5.opus
</region>

<region>
end=342026
hikey=e4
hivel=127
lokey=d#4
loop_end=256519
loop_mode=loop_continuous
loop_start=88007
loop_xfade=50553
lovel=1
lpc=IyPgQcgpjcKzA4JCSSXpwUmQe0E055rB89WJQWYiKcGXpdBARH6rwMbiu0BdH+nAkUW9QFHb4r6L6bu/19QFvmnbbb8+lahAPda+wG992j//cJQ/oVsIvwOCh78zeE0/
lpc_rms=-41.46
pitch_keycenter=e4
sample=SoloCello_trill_half_PP_E4.opus
</region>

<region>
end=333760
hikey=e3
hivel=127
lokey=d#3
loop_end=250320
loop_mode=loop_continuous
loop_start=85880
loop_xfade=49332
lovel=1
lpc=aOdZQjdADMNB0QFDSgZswoS76UEu1sTBkHSBQQE0HsGXO4BA3TV3v/QYGEHZzq/B1p2UQaA1CEDKG1TBtpTbQLbRMT6P+SA/KuX5vJvnqL8y7MDAavN4QeEXgsEwKdZA
lpc_rms=-37.47
pitch_keycenter=e3
sample=SoloCello_trill_half_PP_E3.opus
</region>

<region>
end=308854
hikey=e2
hivel=127
lokey=d#2
loop_end=231640
loop_mode=loop_continuous
loop_start=79471
loop_xfade=45650
lovel=1
lpc=zqeZQmZjMMOwC9xC0u6iPh73EEG1C9jB8njePtgX8UBiTDo/wz0SwbK4V0HnOCLB0SB3QMeoLEGy8QzB1eofwT2l8ECyVOlAH3zzwN4+MUCL5K2/FIuXQA/sVMGSpgpB
lpc_rms=-35.41
pitch_keycenter=e2
sample=SoloCello_trill_half_PP_E2.opus
</region>

<region>
end=348078
hikey=d5
hivel=127
lokey=c#5
loop_end=261058
loop_mode=loop_continuous
loop_start=89564
loop_xfade=51448
lovel=1
lpc=BIFsQfD8BMJEowNCLHu+wZbwikHB81XBYskuQamiE8FbnLJAd5c9v1SXSr+BXhbAL7QEQP/cKEDsXVfAlmTAP4p4wL/MK0VAyzIXwJx/DkCXp62/NksGwKDHh0CR7iDA
lpc_rms=-41.70
pitch_keycenter=d5
sample=SoloCello_trill_half_PP_D5.opus
</region>

<region>
end=338471
hikey=d4
hivel=127
lokey=c#4
loop_end=253853
loop_mode=loop_continuous
loop_start=87092
loop_xfade=50028
lovel=1
lpc=DtEIQoxQrcJE5adCv/4zwhub0kEUBrjBwkJdQcOu4L9c+3jA4cJcP/nXFUBXjFPASoUIQCQOokDFvwzBGaZwQK6sNz93NpNANND6wHnmQED2vZ6/smxKQHnxfcDsNf8/
lpc_rms=-40.05
pitch_keycenter=d4
sample=SoloCello_trill_half_PP_D4.opus
</region>

<region>
end=352459
hikey=d3
hivel=127
lokey=c#3
loop_end=264344
loop_mode=loop_continuous
loop_start=90691
loop_xfade=52095
lovel=1
lpc=3Q80QrIh1MLh85tC732Wwcy8WUEKZIDBmvefQF13KMAptrk/MgkFP9S8jj/wX/XA3v8TQUSOjkCYZRzB4jqLP+LjCb/JRAlBf8EGwZW5AUB5imm/7xpBP+QI7r1i98U+
lpc_rms=-40.08
pitch_keycenter=d3
sample=SoloCello_trill_half_PP_D3.opus
</region>

<region>
end=345454
hikey=d2
hivel=127
lokey=c#2
loop_end=259090
loop_mode=loop_continuous
loop_start=88889
loop_xfade=51060
lovel=1
lpc=yig/Qtbc3sI3I5lCBWg9wdE3bkE+P8PBJcbQQBzzi0Dh5mzAII4twMNt80A898fAbWw5QGk5dUDocwzA27bWwKLEn0D2TGVAPueMwHkZcD/wMRu/kzt0QEXL/MCHopJA
lpc_rms=-40.43
pitch_keycenter=d2
sample=SoloCello_trill_half_PP_D2.opus
</region>

<region>
end=365443
hikey=c5
hivel=127
lokey=b4
loop_end=274082
loop_mode=loop_continuous
loop_start=94032
loop_xfade=54015
lovel=1
lpc=OEIeQWePtMH1aKVBipNDwbq8CkH66/HANNWnQIDnMcAXXZg/88VWPva+EL9BHbQ+pLcDwDE4ZUClSwzAg+IBPx/iyL5+RJs/+Jmxvx+eLD9oo20/OBLvv91Rfj8Z3v69
lpc_rms=-47.80
offset=8002
pitch_keycenter=c5
sample=SoloCello_trill_half_PP_C5.opus
</region>

<region>
end=346988
hikey=c4
hivel=127
lokey=b3
loop_end=260241
loop_mode=loop_continuous
loop_start=89284
loop_xfade=51287
lovel=1
lpc=ymGwQYMmWsJD3VBC6TPywbRBrUFNspnBseZhQYLvJcE9WqRAepCFvv6tmz/iGqHAa0eaQDg4+T6e4pjAAxawQJh9scC3m+pA+dHQwFBybEChd/e/8eQbP2GYiL8ktYQ/
lpc_rms=-42.92
pitch_keycenter=c4
sample=SoloCello_trill_half_PP_C4.opus
</region>

<region>
end=338739
hikey=c3
hivel=127
lokey=b2
loop_end=254054
loop_mode=loop_continuous
loop_start=87161
loop_xfade=50067
lovel=1
lpc=kfMdQhBtu8J7FJFCMlK2wcBgbkG6XnTB9JjIQA7iK8DZhBM/ssDHPlkmqj9Yuo/AGdV4QF/evUDFewXBj+QwvzCFK0A+pb5A9+T0wNDywz+nTxPArIGrQIS9h8Cpvsc/
lpc_rms=-41.54
offset=9058
pitch_keycenter=c3
sample=SoloCello_trill_half_PP_C3.opus
</region>

<region>
end=371823
hivel=127
key=c2
loop_end=278867
loop_mode=loop_continuous
loop_start=95674
loop_xfade=54957
lovel=1
lpc=QvJIQnQJ9cIFkr9CKlLowd3nwUHfudnBW2PuQIHkeD8qwzq+K6AdwAys2kAkFwXBYigYQO3eM0Hv1yvBujkjwPl+oECm3r8/Ri0bwAaYKL9qDDU/5/IbQLiwzcBkwoBA
lpc_rms=-39.89
offset=8562
sample=SoloCello_trill_half_PP_C2.opus
</region>

<region>
end=339252
hikey=a#4
hivel=127
lokey=a4
loop_end=254439
loop_mode=loop_continuous
loop_start=87293
loop_xfade=50143
lovel=1
lpc=Qa7QQFvAbMGy8FpBVRviwHM+iEAhcJDA7yplQFdp7r+tE4s/szi1v4gB4D+R7Ly/ZZpfP1HalL56EQ+/yDvyPkbK8j7g4q2+oKebPgDFQb/ebsE+DrxDPoYmur0XlyG9
lpc_rms=-51.40
offset=13892
pitch_keycenter=a#4
sample=SoloCello_trill_half_PP_A#4.opus
</region>

<region>
end=331496
hikey=a#3
hivel=127
lokey=a3
loop_end=248622
loop_mode=loop_continuous
loop_start=85297
loop_xfade=48997
lovel=1
lpc=6wzdQZFhhcK0d2JCMgG3waeAREEPTD3BkaYaQZc7CsG14oVAFaE8v4mnSUBU59XAMZukQPrz0D9kZGHAJaZkv/foyD/0RjpAoDVrwFNfuz+G9ivAeNy8QLKmy8DRly1A
lpc_rms=-43.96
offset=9165
pitch_keycenter=a#3
sample=SoloCello_trill_half_PP_A#3.opus
</region>

<region>
end=330100
hikey=a#2
hivel=127
lokey=a2
loop_end=247575
loop_mode=loop_continuous
loop_start=84938
loop_xfade=48791
lovel=1
lpc=yx4xQnFL0cLiup5C5DLAwTluf0GkX2XBLCHNQEh43cBkYnxALMC0v9DbhkBvUP3AENvLQEyksUD80wbBHXi2v6hgO0Dl1FpAbwwVwLeOPr9NjkTANVKlQABLh8A46ghA
lpc_rms=-41.46
pitch_keycenter=a#2
sample=SoloCello_trill_half_PP_A#2.opus
</region>
</group>

<group>
group_label=MF
lpc_hicc1=84
lpc_locc1=43

<region>
end=296957
hikey=g#4
hivel=127
lokey=g4
loop_end=222717
loop_mode=loop_continuous
loop_start=76410
loop_xfade=43892
lovel=1
lpc=f8ZNQXxp7cGqH+xBeoe3wSWym0GzvnHBcUQkQc+zvMD57yBAh9qLv3uUij9mzPO+XxwkwKXXpECkjo3AgwxrQE9/qcAw1sNAtUdtwI9TEkBZFATAttQoQIgUXsAADOY/
lpc_rms=-30.45
pitch_keycenter=g#4
sample=SoloCello_trill_half_MF_G#4.opus
</region>

<region>
end=297861
hikey=g#3
hivel=127
lokey=g3
loop_end=223395
loop_mode=loop_continuous
loop_start=76643
loop_xfade=44025
lovel=1
lpc=+f7gQSgKiMLRLXBC6Ff8wZ5pyEE3L7nBVudhQW765cA/EKJAlcShwJqv0kC20PrAnzckQKr79kB6ojHBtHCtQAve/b5CU7NAb6otwfx4vUAPR8i/dJRUQHTkpsD5GTFA
lpc_rms=-29.43
pitch_keycenter=g#3
sample=SoloCello_trill_half_MF_G#3.opus
</region>

<region>
end=292743
hikey=g#2
hivel=127
lokey=g2
loop_end=219557
loop_mode=loop_continuous
loop_start=75326
loop_xfade=43269
lovel=1
lpc=bddQQkAN+cKUQb5CDnIFwnKi5EGBv6LBJl+kQH67FsGfDi1BRB5UwbpxjUGvnYbBMDAqQTvK5kDhOGzBhJfwP8rXZEBXfvY/fmOjv+p4C8D1VxVAo2e7v/VWzj279Ng+
lpc_rms=-24.69
pitch_keycenter=g#2
sample=SoloCello_trill_half_MF_G#2.opus
</region>

<region>
end=290008
hikey=A#6
hivel=127
lokey=f5
loop_end=217506
loop_mode=loop_continuous
loop_start=74622
loop_xfade=42865
lovel=1
lpc=NvMDQUP8g8FfgWtB42EpwY1oF0E0ZPrAn0SyQPZQTcAi4w1Appf+v2g+HEAZ2+a/NcbIPXZnqD9wRIi/we7FP5F9GcDexCRA3rXcv6/pBkBp9TbA920jQH+mVb82Y7k7
lpc_rms=-34.33
pitch_keycenter=F#5
sample=SoloCello_trill_half_MF_F#5.opus
</region>

<region>
end=298625
hikey=f#4
hivel=127
lokey=f4
loop_end=223968
loop_mode=loop_continuous
loop_start=76839
loop_xfade=44138
lovel=1
lpc=XsZKQVQi6sEBeuRBQ6Kjwab8gkELDlvBFOsXQVL8p8DBKTZAINuavq/QcL/9a5w+78oBwE4TpUCWN7HAqk9rQJVmK8B/uIlA4K6BwAJqAUAQ5APAfFhFQC84T8BIRM8/
lpc_rms=-32.26
pitch_keycenter=f#4
sample=SoloCello_trill_half_MF_F#4.opus
</region>

<region>
end=285936
hikey=f#3
hivel=127
lokey=f3
loop_end=214452
loop_mode=loop_continuous
loop_start=73574
loop_xfade=42263
lovel=1
lpc=rgr4QS4ll8JkcYdCqR4NwsQK1UH5q9TBQFORQRcVDMG5VvFAOT5OwUs4jEElvY/B34ESQfcW70A8MmvB2Lb4QJRkRcCdxgpBx8QSwQx3FkBkn4W/p0IPQIllHcAcmrw/
lpc_rms=-28.03
pitch_keycenter=f#3
sample=SoloCello_trill_half_MF_F#3.opus
</region>

<region>
end=296952
hikey=f#2
hivel=127
lokey=f2
loop_end=222714
loop_mode=loop_continuous
loop_start=76409
loop_xfade=43891
lovel=1
lpc=tDGsQiBFWMPjhj1Daoy8wvIXpEJyFIfC3Ca+QcVlS8ETYrhBw2TzwYyjw0FHV+3AEcsiwQrs+UHIhhbCHgSeQb882L5sRrI/JL7kwB3fBj565d4+DWxTQaMQpMFiZRtB
lpc_rms=-22.32
pitch_keycenter=f#2
sample=SoloCello_trill_half_MF_F#2.opus
</region>

<region>
end=294668
hikey=e5
hivel=127
lokey=d#5
loop_end=221001
loop_mode=loop_continuous
loop_start=75821
loop_xfade=43554
lovel=1
lpc=71c1QZ0GwMHS6aNBuahOwXY1PUHWRCHBhJjTQL2xeMBlDQdAzD+cv2nnbz9AF189Icukv4X3C0BPR+y/sTPWP+i7CsBXDDxAD5ALwGEHhT8VQDy//Vt8P8ieVr7TJtC9
lpc_rms=-32.26
pitch_keycenter=e5
sample=SoloCello_trill_half_MF_E5.opus
</region>

<region>
end=334232
hikey=e4
hivel=127
lokey=d#4
loop_end=250674
loop_mode=loop_continuous
loop_start=86001
loop_xfade=49401
lovel=1
lpc=mg93QQ9wEsIrIxBCtEDMwfMDp0FQ4YfB/tUbQaTXY8B5odQ/auoev508f785fPM9799UPrCJIEBfm23A1FXZP/9fJb7h+BdAavkvwEAelj0UaDM/IxNnP/s2CMDVIJQ/
lpc_rms=-31.32
pitch_keycenter=e4
sample=SoloCello_trill_half_MF_E4.opus
</region>

<region>
end=343192
hikey=e3
hivel=127
lokey=d#3
loop_end=257394
loop_mode=loop_continuous
loop_start=88307
loop_xfade=50726
lovel=1
lpc=A70cQlpyxcIKi7pC1CVSwpRaHkIh1xXCiinOQcwabsGR8VZB+H2IwX/WpUGCkqjBznwGQVIPWkFQirPBdAVZQWv598CZflRBf+w8wfocUEDMBhnAg/+FQG6ChMCEqAxA
lpc_rms=-27.12
pitch_keycenter=e3
sample=SoloCello_trill_half_MF_E3.opus
</region>

<region>
end=296057
hikey=e2
hivel=127
lokey=d#2
loop_end=222042
loop_mode=loop_continuous
loop_start=76178
loop_xfade=43759
lovel=1
lpc=RSmbQstuQMO6TCBDzRaGwpdabkJZ02DCFzGiQefA/cBfBY1B0ZzjwWFStkFGa3XAeV3uwDJSoUG/LuTB2Bt6Qe472z9TnDM/igY1wS3V8UBl+/y+BT04QZ45vcFYOENB
lpc_rms=-24.00
pitch_keycenter=e2
sample=SoloCello_trill_half_MF_E2.opus
</region>

<region>
end=305817
hikey=d5
hivel=127
lokey=c#5
loop_end=229362
loop_mode=loop_continuous
loop_start=78690
loop_xfade=45201
lovel=1
lpc=65A8QePjxMHvW7JBgjFxwb5uRkGLIyzB3JMEQep/ncBSTClAHX2Pv1XEDT8lXXe/il2pO3x9HUA2mFjAwx81QLoZC8D5fSVAmi9+v582/L7Uj3M/jjekvuMRkr5JkOM+
lpc_rms=-35.24
pitch_keycenter=d5
sample=SoloCello_trill_half_MF_D5.opus
</region>

<region>
end=323135
hikey=d4
hivel=127
lokey=c#4
loop_end=242351
loop_mode=loop_continuous
loop_start=83146
loop_xfade=47761
lovel=1
lpc=ocOMQfogKcKJ1idCxTXgwfiInkEEKGzBUaQHQY5tVcBQVcY/srWZvyRVlT17qag/QOF6wNAq2kCMkfDA55q8QJi+jcA8vrNAGmqqwHYKK0DJ+GC/MBf4Pz3NT8BZxdY/
lpc_rms=-30.48
pitch_keycenter=d4
sample=SoloCello_trill_half_MF_D4.opus
</region>

<region>
end=301959
hikey=d3
hivel=127
lokey=c#3
loop_end=226469
loop_mode=loop_continuous
loop_start=77697
loop_xfade=44631
lovel=1
lpc=i4rLQcP2dMKY3VRCLkfRwdhzp0EUwK3BOhpdQQgi0MDziaZAOg3EwB03/UAasCPBJsW5QJpCvUBBbz/BZV3HQCbiLL/dScVAJaYGwSCj6z9V2AO+23IoQKYxQ8A4eac/
lpc_rms=-28.72
pitch_keycenter=d3
sample=SoloCello_trill_half_MF_D3.opus
</region>

<region>
end=328046
hikey=d2
hivel=127
lokey=c#2
loop_end=246034
loop_mode=loop_continuous
loop_start=84410
loop_xfade=48487
lovel=1
lpc=AhohQqkTwsIIvppCY0PzwRm930Gpk8rB+t4bQdvZ58BoNQ5BXH42wWsRA0G2VTZAzWbmwM+MNEH5dEvBooMYQMnhukA68QnAYbKKv4EtecCDdddAlztjP44jA8G7MY9A
lpc_rms=-28.97
pitch_keycenter=d2
sample=SoloCello_trill_half_MF_D2.opus
</region>

<region>
end=331791
hikey=c5
hivel=127
lokey=b4
loop_end=248843
loop_mode=loop_continuous
loop_start=85373
loop_xfade=49041
lovel=1
lpc=unAGQeruisGTl3VB1SYrwdaVF0FSsAjBGU/ZQKCydMCDAos/SlRqPlEsKb4RQeW+jISTvwSGcEBePU7AQW0dQBcgXcCa+4ZADX1FwJpc0T+39oY8wZU7vlyMk7/U3Is/
lpc_rms=-37.85
pitch_keycenter=c5
sample=SoloCello_trill_half_MF_C5.opus
</region>

<region>
end=301887
hikey=c4
hivel=127
lokey=b3
loop_end=226415
loop_mode=loop_continuous
loop_start=77679
loop_xfade=44620
lovel=1
lpc=KHSMQZm4I8KCaRtCF0HPwXjin0FGSHrB2WcaQY70o8Ac9ypAQuixvh4L1r9FraY/i3CXvyziQEDTH5XAZzlIQOkBiL8WKUZAP6iOwEIpaEBFXmvAZ+qDQIC2aMBBstc/
lpc_rms=-28.06
pitch_keycenter=c4
sample=SoloCello_trill_half_MF_C4.opus
</region>

<region>
end=295744
hikey=c3
hivel=127
lokey=b2
loop_end=221808
loop_mode=loop_continuous
loop_start=76098
loop_xfade=43713
lovel=1
lpc=B2kPQvoOrsKiVJBCcHfrwZIKl0G+vErBQ6tRQE7ZLMD5PGNAM4DnwORxOEEUwErBic/OQOtiGUF5YnTBSePwQJFimsDwRa5AEWG0vwR1+78D/WBAylzdv9AHUsDQUC5A
lpc_rms=-28.64
pitch_keycenter=c3
sample=SoloCello_trill_half_MF_C3.opus
</region>

<region>
end=295490
hivel=127
key=c2
loop_end=221617
loop_mode=loop_continuous
loop_start=76032
loop_xfade=43675
lovel=1
lpc=HLNFQs8J8sIpzcNC/7cewkdAF0I/xAnC7Rs5QZ3Ps8A1tAxB+uJFwVJFIUFd26A/1enhwJseUkG8K6LBBiNEQV63x76eMzlAp/ynwCnS2b/0OoRAkdWBQHK8M8FyOMBA
lpc_rms=-28.49
sample=SoloCello_trill_half_MF_C2.opus
</region>

<region>
end=301339
hikey=a#4
hivel=127
lokey=a4
loop_end=226004
loop_mode=loop_continuous
loop_start=77538
loop_xfade=44539
lovel=1
lpc=6tHBQOQjTcHdh0FBFvcUwT4dA0FitLzA04BuQIgSEMBSOl8/Vkk1v9U8hT8royu/xD0ivl0Xuz/WIfi/JhXgP89hBsDphxxAMUuqv/f8fz5XgZm+fidaP67KZL8I8Pc+
lpc_rms=-37.52
pitch_keycenter=a#4
sample=SoloCello_trill_half_MF_A#4.opus
</region>

<region>
end=291922
hikey=a#3
hivel=127
lokey=a3
loop_end=218941
loop_mode=loop_continuous
loop_start=75114
loop_xfade=43148
lovel=1
lpc=UWs+QWcK1MECKMBBvE91wRxLOkGz1hXBTxatQL0BH8AZ/Y0/qcaFvZuiaL5jpSo/bEoMwCQbZ0Dj5m7AGtThP3tPC7+ZfNw/wUOivzAAHD97bwXAQdY2QD3y57/+ogw/
lpc_rms=-30.94
pitch_keycenter=a#3
sample=SoloCello_trill_half_MF_A#3.opus
</region>

<region>
end=298705
hikey=a#2
hivel=127
lokey=a2
loop_end=224028
loop_mode=loop_continuous
loop_start=76860
loop_xfade=44150
lovel=1
lpc=to0PQhUQqsLeM4dCsB7PwVm6gUEeRCDBwAE2QLF+hcCy+4xAmp7twDv2Q0E9kkLBnfixQDZHAEGDv1DBBoWZQDcHFT4D+f0/HdEsvyUtxr8C/aI+Sa9QPr9D6L9xruY/
lpc_rms=-27.95
pitch_keycenter=a#2
sample=SoloCello_trill_half_MF_A#2.opus
</region>
</group>

<group>
group_label=FF
lpc_hicc1=127
lpc_locc1=85

<region>
end=290280
hikey=g#4
hivel=127
lokey=g4
loop_end=217710
loop_mode=loop_continuous
loop_start=74692
loop_xfade=42905
lovel=1
lpc=4botQVzbvsFuuKlBL4NYwfV8NEESOCLBmDPfQFjdg8ALGj1Ax8c4wOZohEA0UJvACL1BQFtktrwEluC/Iu0RQMoGFMAsWFpA5ZhvwFeHEEDHuq2/paz8P83oHMBCiqg/
lpc_rms=-21.88
pitch_keycenter=g#4
sample=SoloCello_trill_half_FF_G#4.opus
</region>

<region>
end=310906
hikey=g#3
hivel=127
lokey=g3
loop_end=233179
loop_mode=loop_continuous
loop_start=79999
loop_xfade=45954
lovel=1
lpc=JdunQTjkT8JAPEFCXWXDwY2VZEFpM17BNqNCQYfkCcG/M8pAlCb/wF7bIEE8vhTByF2jQDxPoECERE/Ba00mQd5wiMAaVEtAhRqCwMSa5j9FilI/Crc8P4JOZ8C6UQpA
lpc_rms=-23.51
pitch_keycenter=g#3
sample=SoloCello_trill_half_FF_G#3.opus
</region>

<region>
end=297117
hikey=g#2
hivel=127
lokey=g2
loop_end=222837
loop_mode=loop_continuous
loop_start=76451
loop_xfade=43915
lovel=1
lpc=A00jQiIJxMLvVqNCuGMWwidP2UFWq3vB+ddjQMChEsGWfElBVYRZwTnQfkFyPS7BsBc+QLfEqkAy3yPBxKUCQcJhjMCQ5nhANZQXwMFbpr5Kghg/xZKoP87Od8D0UBpA
lpc_rms=-18.83
pitch_keycenter=g#2
sample=SoloCello_trill_half_FF_G#2.opus
</region>

<region>
end=293339
hikey=A#6
hivel=127
lokey=f5
loop_end=220004
loop_mode=loop_continuous
loop_start=75479
loop_xfade=43357
lovel=1
lpc=1EP2QENaW8FNpjNBdiHqwIYwy0AfhWvAKDOLP3md8L6cvt0/k2Tmv60IK0BFhzPAonjQP2c/Rj9s2bG/YJcEQAM5CMD3kBlAhxrgv18G5z8Cpum/YEoDQBZkm79++08/
lpc_rms=-23.50
pitch_keycenter=F#5
sample=SoloCello_trill_half_FF_F#5.opus
</region>

<region>
end=295219
hikey=f#4
hivel=127
lokey=f4
loop_end=221414
loop_mode=loop_continuous
loop_start=75963
loop_xfade=43635
lovel=1
lpc=vp8sQdVhu8Fg7KJBmJtNweRVIEGLPAvBJZTqQLZNssAKGZJAHDeCwOh2aECQdnnA4zlBQEfN5D5XICbAUlwFQMrTEcDAlIRAoWaJwNXIR0Br5ivAodkWQB1E5L+2xlY/
lpc_rms=-22.16
pitch_keycenter=f#4
sample=SoloCello_trill_half_FF_F#4.opus
</region>

<region>
end=293674
hikey=f#3
hivel=127
lokey=f3
loop_end=220255
loop_mode=loop_continuous
loop_start=75565
loop_xfade=43407
lovel=1
lpc=rwm2QdHRXMIyzkFCd5iswQudS0EZ4FjBYesmQSgxscCdfYVAMhn4wB3BN0Ha2TvBu3CuQIzMyEALejvBoxLnQAtHQMCJBplABTi7wJzOBUDZ+Eg/XsMKPyb6IcD3hcQ/
lpc_rms=-23.59
pitch_keycenter=f#3
sample=SoloCello_trill_half_FF_F#3.opus
</region>

<region>
end=289619
hikey=f#2
hivel=127
lokey=f2
loop_end=217214
loop_mode=loop_continuous
loop_start=74522
loop_xfade=42807
lovel=1
lpc=X+JdQnmGCsPnp/FCypdswpe0P0J/9wTCxzHvQJcZCMGx53hB1uChwceIfEELM0W/erSWwPhjPUG2h2HBdGUXvt2bDUFaA3rAkpIHQKjhr8CXiXBAik5hQFHrF8EPlKpA
lpc_rms=-17.66
pitch_keycenter=f#2
sample=SoloCello_trill_half_FF_F#2.opus
</region>

<region>
end=294291
hikey=e5
hivel=127
lokey=d#5
loop_end=220718
loop_mode=loop_continuous
loop_start=75724
loop_xfade=43498
lovel=1
lpc=ZosQQe1MicHkUWpBv5gkwQSfEUFOgdHAW3mZQOIlgsBZiilAtxqyv5N5K0Bpr3XA/PojQGKirL4viAq9MiyFP6HADMCfr0pAUAc4wIXHO0C9rhPAobrmP52Rmr/VklU/
lpc_rms=-21.90
pitch_keycenter=e5
sample=SoloCello_trill_half_FF_E5.opus
</region>

<region>
end=291469
hikey=e4
hivel=127
lokey=d#4
loop_end=218601
loop_mode=loop_continuous
loop_start=74998
loop_xfade=43080
lovel=1
lpc=+kJSQTwg6sH+Is9BgLCCwfJkWkErrkDBgZoQQZv308AqOYhAKmlywHfLoUCsdbfA9cd1QCwRiz8AuVzAYkoVQHKINsC4rJ1AfjqSwPWXSUASdgjAqV4HQHXhFsAD6oo/
lpc_rms=-20.03
pitch_keycenter=e4
sample=SoloCello_trill_half_FF_E4.opus
</region>

<region>
end=303851
hikey=e3
hivel=127
lokey=d#3
loop_end=227888
loop_mode=loop_continuous
loop_start=78184
loop_xfade=44911
lovel=1
lpc=q43mQWcQi8KwdmxCyYnAwRTGWUGXv3XBy45AQaZJ1sDva61AElsdwYeaYkHCOVvBd9+RQLdvN0FWqYfBBHD/QI6m8L/E3qhANF3VwMSBAUA/E8w+11g3QDctwMDgE0tA
lpc_rms=-21.39
pitch_keycenter=e3
sample=SoloCello_trill_half_FF_E3.opus
</region>

<region>
end=292045
hikey=e2
hivel=127
lokey=d#2
loop_end=219033
loop_mode=loop_continuous
loop_start=75146
loop_xfade=43166
lovel=1
lpc=HK87QlnM6MIrEchC+Ag6wkoXFkKvAeDBnd7mQM4p4MDqGUNBv3pcwQhLIkHZ2gS/1QSFwGNiE0HW+wbB3tQ5wI/88kChK6K/goGEvwFDEsBMl1I+O5bsQKTcNsHffbBA
lpc_rms=-18.12
pitch_keycenter=e2
sample=SoloCello_trill_half_FF_E2.opus
</region>

<region>
end=297528
hikey=d5
hivel=127
lokey=c#5
loop_end=223146
loop_mode=loop_continuous
loop_start=76557
loop_xfade=43976
lovel=1
lpc=+p0HQTc1gcFVlFlBoMQbwXNA90C9g47A33VvQACYe8C/uAFALpVLv5ZNBECrdR/AvgtkP5MmgT/gZZW/GFSxPxNqHsB2flRAGgkrwEnvT0AylDTArY/kP1yk37/1VKk/
lpc_rms=-22.78
pitch_keycenter=d5
sample=SoloCello_trill_half_FF_D5.opus
</region>

<region>
end=314372
hikey=d4
hivel=127
lokey=c#4
loop_end=235779
loop_mode=loop_continuous
loop_start=80891
loop_xfade=46466
lovel=1
lpc=Bq+BQTijFMJfhgVCqtefwdrccUGfXlDBSnAWQSp3p8DB2glAVp9NwPo030CsKgfBVDuHQKv+N0DABq7AqEOCQJvml8DOgdVAjT+jwO3uBkDau8y+8qEgP68k8b/xKqU/
lpc_rms=-19.54
pitch_keycenter=d4
sample=SoloCello_trill_half_FF_D4.opus
</region>

<region>
end=296456
hikey=d3
hivel=127
lokey=c#3
loop_end=222342
loop_mode=loop_continuous
loop_start=76281
loop_xfade=43818
lovel=1
lpc=O9frQdCSkcK2sIJCSA0Gwm3GvkGEcozBUOEAQdi/6sBmVhdBr99HwQLGM0Eky/K/ZrtuwMwMskA3iNHASwpUQDd+Yb8PmWFAFnMTwONlEMBHCdo/w6Z2P88EHsCOh70/
lpc_rms=-22.26
pitch_keycenter=d3
sample=SoloCello_trill_half_FF_D3.opus
</region>

<region>
end=309733
hikey=d2
hivel=127
lokey=c#2
loop_end=232299
loop_mode=loop_continuous
loop_start=79697
loop_xfade=45780
lovel=1
lpc=YmUDQqVVlcJk11ZCnRqUwYlRlkGlRFXBZkJvP+0fcsAA1elApDAAwXucrUBhWOQ+oFcfwEuZvkAbzKbAkpknwNhxzkDOQzrAnFmZPxvJUcD+/RBAJPP/P9c+pMBZijRA
lpc_rms=-20.12
pitch_keycenter=d2
sample=SoloCello_trill_half_FF_D2.opus
</region>

<region>
end=296094
hikey=c5
hivel=127
lokey=b4
loop_end=222070
loop_mode=loop_continuous
loop_start=76188
loop_xfade=43764
lovel=1
lpc=CLfiQKhnWMGAhDBBcQDnwA1/tEBTN47AXW+QQEj7cMCOKAdASfwHwGL9VUDS/ljAKlYAQC96hD4ABau/9m5tP1TDPr+C0r8/4MNzv7R5VT+nNoW/0dMtP/v2Cb+KUhk/
lpc_rms=-25.63
pitch_keycenter=c5
sample=SoloCello_trill_half_FF_C5.opus
</region>

<region>
end=301017
hikey=c4
hivel=127
lokey=b3
loop_end=225762
loop_mode=loop_continuous
loop_start=77455
loop_xfade=44492
lovel=1
lpc=BEVcQevA9MFGwddBrrqIweKFXUGV3jfBVqD3QMJJnMDQ1mRAPi1HwK4zT0B2xojAjbRbQPhAcj8gEHjAa9AOQCz9Pb9kygBA6idDwPx2EkCodoa/NnA7P5frDb9fv44+
lpc_rms=-22.71
pitch_keycenter=c4
sample=SoloCello_trill_half_FF_C4.opus
</region>

<region>
end=299259
hikey=c3
hivel=127
lokey=b2
loop_end=224444
loop_mode=loop_continuous
loop_start=77002
loop_xfade=44232
lovel=1
lpc=BmDKQfnSZ8JyyTNCaJaWwRe8X0FkHevArMkFP6+IJMBqwmdA1+PUwPsFFkGId/fAFrhgQEtLpkDK6RLB2iDFQOnLkcD3P2NA0eDOvVpus7/fmB8+0PUKQCO7cMBLRes/
lpc_rms=-21.82
pitch_keycenter=c3
sample=SoloCello_trill_half_FF_C3.opus
</region>

<region>
end=297438
hivel=127
key=c2
loop_end=223078
loop_mode=loop_continuous
loop_start=76534
loop_xfade=43963
lovel=1
lpc=4nEUQkUMvMJflaxC2Xw1wgsOCUIYFsXBNX/8QAkqp8DMogpBKIY9wSlz80BXG78/sBCkwPSxLkF3NTvBdAutP6gvmUBHWLq/v9Ruv7hnF78xIWo+TcaUQJTb/MAuDHRA
lpc_rms=-18.74
sample=SoloCello_trill_half_FF_C2.opus
</region>

<region>
end=301027
hikey=a#4
hivel=127
lokey=a4
loop_end=225770
loop_mode=loop_continuous
loop_start=77457
loop_xfade=44493
lovel=1
lpc=VTWTQGnjDcGp1OpAfLORwHZxXUBVSDvA9aYqQJJi5b9pNzE/m5ASvwXYmT96Hsa/RGCGP2w/pT4W7IC/H3FYPyFUVL97F6w/WI6tv1Oycz95qVu/zlo/P3Fy0r6S7Hw+
lpc_rms=-29.99
pitch_keycenter=a#4
sample=SoloCello_trill_half_FF_A#4.opus
</region>

<region>
end=296574
hikey=a#3
hivel=127
lokey=a3
loop_end=222430
loop_mode=loop_continuous
loop_start=76311
loop_xfade=43835
lovel=1
lpc=e1GaQeIUOMJ2BShCt6azwbrSY0E+jErBSUsnQVUE8MAf8aZA0nvdwM+nFEGOZArBISJgQD5czUBpjkfBHU4LQceHa8C75nhAiVCGwB/T3D8+7jG/6KFLQLVwfMADuMg/
lpc_rms=-24.51
pitch_keycenter=a#3
sample=SoloCello_trill_half_FF_A#3.opus
</region>

<region>
end=308658
hikey=a#2
hivel=127
lokey=a2
loop_end=231493
loop_mode=loop_continuous
loop_start=79421
loop_xfade=45621
lovel=1
lpc=+gnMQeXMdMIkqUtCyoOtwTxGaEHExw7BC1EoP9V3QsDVZAFBUDEtwfDNGkG21mXAPUXav370w0AeZwPBmR+JQNuovD1SqMU/8xcuwKEyVz8yL9u/G+GuQP3I6sB8Dl5A
lpc_rms=-22.51
pitch_keycenter=a#2
sample=SoloCello_trill_half_FF_A#2.opus
</region>
</group>